<svg width="85" height="69" viewBox="0 0 85 69" fill="none" xmlns="http://www.w3.org/2000/svg">
<path d="M5.39464 2.69732C5.39464 4.18448 4.18448 5.39464 2.69732 5.39464C1.21015 5.39464 0 4.18448 0 2.69732C0 1.21015 1.21015 0 2.69732 0C4.18448 0 5.39464 1.21015 5.39464 2.69732Z" fill="#10B981"/>
<path d="M21.1703 2.69732C21.1703 4.18448 19.9602 5.39464 18.473 5.39464C16.9858 5.39464 15.7757 4.18448 15.7757 2.69732C15.7757 1.21015 16.9858 0 18.473 0C19.9602 0 21.1703 1.21015 21.1703 2.69732Z" fill="#10B981"/>
<path d="M36.946 2.69732C36.946 4.18448 35.7358 5.39464 34.2487 5.39464C32.7615 5.39464 31.5514 4.18448 31.5514 2.69732C31.5514 1.21015 32.7615 0 34.2487 0C35.7358 0 36.946 1.21015 36.946 2.69732Z" fill="#10B981"/>
<path d="M52.7214 2.69732C52.7214 4.18448 51.5113 5.39464 50.0241 5.39464C48.5369 5.39464 47.3268 4.18448 47.3268 2.69732C47.3268 1.21015 48.5369 0 50.0241 0C51.5113 0 52.7214 1.21015 52.7214 2.69732Z" fill="#10B981"/>
<path d="M68.4971 2.69732C68.4971 4.18448 67.287 5.39464 65.7998 5.39464C64.3126 5.39464 63.1025 4.18448 63.1025 2.69732C63.1025 1.21015 64.3126 0 65.7998 0C67.287 0 68.4971 1.21015 68.4971 2.69732Z" fill="#10B981"/>
<path d="M84.2874 2.69732C84.2874 4.18448 83.0773 5.39464 81.5901 5.39464C80.1029 5.39464 78.8928 4.18448 78.8928 2.69732C78.8928 1.21015 80.1029 0 81.5901 0C83.0773 0 84.2874 1.21015 84.2874 2.69732Z" fill="#10B981"/>
<path d="M5.39464 18.4731C5.39464 19.9602 4.18448 21.1704 2.69732 21.1704C1.21015 21.1704 0 19.9602 0 18.4731C0 16.9859 1.21015 15.7758 2.69732 15.7758C4.18448 15.7758 5.39464 16.9859 5.39464 18.4731Z" fill="#10B981"/>
<path d="M21.1703 18.4731C21.1703 19.9602 19.9602 21.1704 18.473 21.1704C16.9858 21.1704 15.7757 19.9602 15.7757 18.4731C15.7757 16.9859 16.9858 15.7758 18.473 15.7758C19.9602 15.7758 21.1703 16.9859 21.1703 18.4731Z" fill="#10B981"/>
<path d="M36.946 18.4731C36.946 19.9602 35.7358 21.1704 34.2487 21.1704C32.7615 21.1704 31.5514 19.9602 31.5514 18.4731C31.5514 16.9859 32.7615 15.7758 34.2487 15.7758C35.7358 15.7758 36.946 16.9859 36.946 18.4731Z" fill="#10B981"/>
<path d="M52.7214 18.4731C52.7214 19.9602 51.5113 21.1704 50.0241 21.1704C48.5369 21.1704 47.3268 19.9602 47.3268 18.4731C47.3268 16.9859 48.5369 15.7758 50.0241 15.7758C51.5113 15.7758 52.7214 16.9859 52.7214 18.4731Z" fill="#10B981"/>
<path d="M68.4971 18.4731C68.4971 19.9602 67.287 21.1704 65.7998 21.1704C64.3126 21.1704 63.1025 19.9602 63.1025 18.4731C63.1025 16.9859 64.3126 15.7758 65.7998 15.7758C67.287 15.7758 68.4971 16.9859 68.4971 18.4731Z" fill="#10B981"/>
<path d="M84.2874 18.4731C84.2874 19.9602 83.0773 21.1704 81.5901 21.1704C80.1029 21.1704 78.8928 19.9602 78.8928 18.4731C78.8928 16.9859 80.1029 15.7758 81.5901 15.7758C83.0773 15.7758 84.2874 16.9859 84.2874 18.4731Z" fill="#10B981"/>
<path d="M5.39464 34.2486C5.39464 35.7357 4.18448 36.9459 2.69732 36.9459C1.21015 36.9459 0 35.7357 0 34.2486C0 32.7614 1.21015 31.5513 2.69732 31.5513C4.18448 31.5513 5.39464 32.7614 5.39464 34.2486Z" fill="#10B981"/>
<path d="M21.1703 34.2486C21.1703 35.7357 19.9602 36.9459 18.473 36.9459C16.9858 36.9459 15.7757 35.7357 15.7757 34.2486C15.7757 32.7614 16.9858 31.5513 18.473 31.5513C19.9602 31.5513 21.1703 32.7614 21.1703 34.2486Z" fill="#10B981"/>
<path d="M36.946 34.2486C36.946 35.7357 35.7358 36.9459 34.2487 36.9459C32.7615 36.9459 31.5514 35.7357 31.5514 34.2486C31.5514 32.7614 32.7615 31.5513 34.2487 31.5513C35.7358 31.5513 36.946 32.7614 36.946 34.2486Z" fill="#10B981"/>
<path d="M52.7214 34.2486C52.7214 35.7357 51.5113 36.9459 50.0241 36.9459C48.5369 36.9459 47.3268 35.7357 47.3268 34.2486C47.3268 32.7614 48.5369 31.5513 50.0241 31.5513C51.5113 31.5513 52.7214 32.7614 52.7214 34.2486Z" fill="#10B981"/>
<path d="M68.4971 34.2486C68.4971 35.7357 67.287 36.9459 65.7998 36.9459C64.3126 36.9459 63.1025 35.7357 63.1025 34.2486C63.1025 32.7614 64.3126 31.5513 65.7998 31.5513C67.287 31.5513 68.4971 32.7614 68.4971 34.2486Z" fill="#10B981"/>
<path d="M84.2874 34.2486C84.2874 35.7357 83.0773 36.9459 81.5901 36.9459C80.1029 36.9459 78.8928 35.7357 78.8928 34.2486C78.8928 32.7614 80.1029 31.5513 81.5901 31.5513C83.0773 31.5513 84.2874 32.7614 84.2874 34.2486Z" fill="#10B981"/>
<path d="M5.39464 50.0388C5.39464 51.5259 4.18448 52.7361 2.69732 52.7361C1.21015 52.7361 0 51.5259 0 50.0388C0 48.5516 1.21015 47.3414 2.69732 47.3414C4.18448 47.3269 5.39464 48.537 5.39464 50.0388Z" fill="#10B981"/>
<path d="M21.1703 50.0386C21.1703 51.5258 19.9602 52.7359 18.473 52.7359C16.9858 52.7359 15.7757 51.5258 15.7757 50.0386C15.7757 48.5515 16.9858 47.3413 18.473 47.3413C19.9602 47.3413 21.1703 48.5369 21.1703 50.0386Z" fill="#10B981"/>
<path d="M36.946 50.0388C36.946 51.5259 35.7358 52.7361 34.2487 52.7361C32.7615 52.7361 31.5514 51.5259 31.5514 50.0388C31.5514 48.5516 32.7615 47.3414 34.2487 47.3414C35.7358 47.3269 36.946 48.537 36.946 50.0388Z" fill="#10B981"/>
<path d="M52.7214 50.0386C52.7214 51.5258 51.5113 52.7359 50.0241 52.7359C48.5369 52.7359 47.3268 51.5258 47.3268 50.0386C47.3268 48.5515 48.5369 47.3413 50.0241 47.3413C51.5113 47.3413 52.7214 48.5369 52.7214 50.0386Z" fill="#10B981"/>
<path d="M68.4971 50.0386C68.4971 51.5258 67.287 52.7359 65.7998 52.7359C64.3126 52.7359 63.1025 51.5258 63.1025 50.0386C63.1025 48.5515 64.3126 47.3413 65.7998 47.3413C67.287 47.3413 68.4971 48.5369 68.4971 50.0386Z" fill="#10B981"/>
<path d="M84.2874 50.0388C84.2874 51.5259 83.0773 52.7361 81.5901 52.7361C80.1029 52.7361 78.8928 51.5259 78.8928 50.0388C78.8928 48.5516 80.1029 47.3414 81.5901 47.3414C83.0773 47.3269 84.2874 48.537 84.2874 50.0388Z" fill="#10B981"/>
<path d="M5.39464 65.8144C5.39464 67.3016 4.18448 68.5117 2.69732 68.5117C1.21015 68.5117 0 67.3016 0 65.8144C0 64.3272 1.21015 63.1171 2.69732 63.1171C4.18448 63.1025 5.39464 64.3126 5.39464 65.8144Z" fill="#10B981"/>
<path d="M21.1703 65.8144C21.1703 67.3015 19.9602 68.5117 18.473 68.5117C16.9858 68.5117 15.7757 67.3015 15.7757 65.8144C15.7757 64.3272 16.9858 63.1171 18.473 63.1171C19.9602 63.1171 21.1703 64.3126 21.1703 65.8144Z" fill="#10B981"/>
<path d="M36.946 65.8144C36.946 67.3016 35.7358 68.5117 34.2487 68.5117C32.7615 68.5117 31.5514 67.3016 31.5514 65.8144C31.5514 64.3272 32.7615 63.1171 34.2487 63.1171C35.7358 63.1025 36.946 64.3126 36.946 65.8144Z" fill="#10B981"/>
<path d="M52.7214 65.8144C52.7214 67.3015 51.5113 68.5117 50.0241 68.5117C48.5369 68.5117 47.3268 67.3015 47.3268 65.8144C47.3268 64.3272 48.5369 63.1171 50.0241 63.1171C51.5113 63.1171 52.7214 64.3126 52.7214 65.8144Z" fill="#10B981"/>
<path d="M68.4971 65.8144C68.4971 67.3015 67.287 68.5117 65.7998 68.5117C64.3126 68.5117 63.1025 67.3015 63.1025 65.8144C63.1025 64.3272 64.3126 63.1171 65.7998 63.1171C67.287 63.1171 68.4971 64.3126 68.4971 65.8144Z" fill="#10B981"/>
<path d="M84.2874 65.8144C84.2874 67.3016 83.0773 68.5117 81.5901 68.5117C80.1029 68.5117 78.8928 67.3016 78.8928 65.8144C78.8928 64.3272 80.1029 63.1171 81.5901 63.1171C83.0773 63.1025 84.2874 64.3126 84.2874 65.8144Z" fill="#10B981"/>
</svg>
