<svg width="56" height="56" viewBox="0 0 56 56" fill="none" xmlns="http://www.w3.org/2000/svg">
<path d="M14 32.6666H9.33333C8.04467 32.6666 7 33.7113 7 35V39.6666C7 40.9553 8.04467 42 9.33333 42H14C15.2887 42 16.3333 40.9553 16.3333 39.6666V35C16.3333 33.7113 15.2887 32.6666 14 32.6666Z" stroke="#10B981" stroke-width="1.83333" stroke-linecap="round" stroke-linejoin="round"/>
<path d="M46.6666 32.6666H42C40.7113 32.6666 39.6666 33.7113 39.6666 35V39.6666C39.6666 40.9553 40.7113 42 42 42H46.6666C47.9553 42 49 40.9553 49 39.6666V35C49 33.7113 47.9553 32.6666 46.6666 32.6666Z" stroke="#10B981" stroke-width="1.83333" stroke-linecap="round" stroke-linejoin="round"/>
<path d="M30.3334 14H25.6667C24.378 14 23.3334 15.0447 23.3334 16.3333V21C23.3334 22.2887 24.378 23.3333 25.6667 23.3333H30.3334C31.622 23.3333 32.6667 22.2887 32.6667 21V16.3333C32.6667 15.0447 31.622 14 30.3334 14Z" stroke="#10B981" stroke-width="1.83333" stroke-linecap="round" stroke-linejoin="round"/>
<path d="M23.3333 19.8334C20.2294 20.3502 17.39 21.8975 15.2734 24.2259C13.1567 26.5542 11.8861 29.5277 11.6666 32.6667" stroke="#10B981" stroke-width="1.83333" stroke-linecap="round" stroke-linejoin="round"/>
<path d="M32.6666 19.8334C35.7706 20.3502 38.6099 21.8975 40.7266 24.2259C42.8432 26.5542 44.1138 29.5277 44.3333 32.6667" stroke="#10B981" stroke-width="1.83333" stroke-linecap="round" stroke-linejoin="round"/>
<path d="M23.3334 18.6666H9.33337" stroke="#10B981" stroke-width="1.83333" stroke-linecap="round" stroke-linejoin="round"/>
<path d="M46.6666 18.6666H32.6666" stroke="#10B981" stroke-width="1.83333" stroke-linecap="round" stroke-linejoin="round"/>
<path d="M6.99996 21C8.28862 21 9.33329 19.9554 9.33329 18.6667C9.33329 17.378 8.28862 16.3334 6.99996 16.3334C5.71129 16.3334 4.66663 17.378 4.66663 18.6667C4.66663 19.9554 5.71129 21 6.99996 21Z" stroke="#10B981" stroke-width="1.83333" stroke-linecap="round" stroke-linejoin="round"/>
<path d="M49 21C50.2886 21 51.3333 19.9554 51.3333 18.6667C51.3333 17.378 50.2886 16.3334 49 16.3334C47.7113 16.3334 46.6666 17.378 46.6666 18.6667C46.6666 19.9554 47.7113 21 49 21Z" stroke="#10B981" stroke-width="1.83333" stroke-linecap="round" stroke-linejoin="round"/>
</svg>
