<svg width="106" height="51" viewBox="0 0 106 51" fill="none" xmlns="http://www.w3.org/2000/svg">
<path d="M0.212158 50.2432L0.54549 49.6393C0.954579 50.0167 1.60609 50.2432 2.27275 50.2432C3.13639 50.2432 3.71214 49.9261 3.71214 49.3374C3.71214 48.2353 0.984882 48.809 0.984882 47.1031C0.984882 46.0916 1.89397 45.4575 3.19699 45.4575C3.8485 45.4575 4.46971 45.6236 4.9091 45.9104L4.60607 46.5294C4.21214 46.2576 3.69699 46.1067 3.16669 46.1067C2.2879 46.1067 1.74245 46.4841 1.74245 47.0427C1.74245 48.1598 4.46971 47.6314 4.46971 49.2317C4.46971 50.2583 3.54547 50.8772 2.2273 50.8772C1.39397 50.8772 0.606096 50.6055 0.212158 50.2432Z" fill="white"/>
<path d="M8.51539 45.5347H9.27296L8.33357 50.1694H11.2124L11.076 50.8336H7.43964L8.51539 45.5347Z" fill="white"/>
<path d="M14.2122 48.6429C14.2122 46.8766 15.4849 45.4575 17.4395 45.4575C19.0304 45.4575 19.9395 46.3633 19.9395 47.6918C19.9395 49.4581 18.6668 50.8772 16.7122 50.8772C15.1213 50.8772 14.2122 49.9714 14.2122 48.6429ZM19.1668 47.7371C19.1668 46.786 18.5455 46.1369 17.3637 46.1369C15.894 46.1369 14.9546 47.2691 14.9546 48.5976C14.9546 49.5487 15.591 50.1979 16.7577 50.1979C18.2425 50.213 19.1668 49.0656 19.1668 47.7371Z" fill="white"/>
<path d="M26.9241 48.1445H27.6514L27.2272 50.2279C26.7272 50.6506 26.015 50.8921 25.2878 50.8921C23.712 50.8921 22.7574 49.9863 22.7574 48.6578C22.7574 46.8915 24.0302 45.4724 26.0302 45.4724C26.9544 45.4724 27.6666 45.7743 28.0757 46.2876L27.5302 46.7556C27.1666 46.3329 26.6666 46.1518 25.9999 46.1518C24.4847 46.1518 23.515 47.2538 23.515 48.6125C23.515 49.5636 24.1514 50.2128 25.3787 50.2128C25.8181 50.2128 26.2272 50.092 26.5756 49.8807L26.9241 48.1445Z" fill="white"/>
<path d="M34.4395 49.5035H31.6061L30.7576 50.832H29.9395L33.4091 45.5481H34.1667L35.5152 50.832H34.7576L34.4395 49.5035ZM34.2879 48.8845L33.6516 46.2727L31.9849 48.8845H34.2879Z" fill="white"/>
<path d="M44.1059 45.5347L43.0453 50.8185H42.4241L40.0453 46.7424L39.2271 50.8185H38.4695L39.5302 45.5347H40.1514L42.5302 49.6108L43.3483 45.5347H44.1059Z" fill="white"/>
<path d="M51.0306 48.1445H51.7579L51.3336 50.2279C50.8336 50.6506 50.1215 50.8921 49.3942 50.8921C47.8185 50.8921 46.864 49.9863 46.864 48.6578C46.864 46.8915 48.1215 45.4724 50.1367 45.4724C51.0609 45.4724 51.773 45.7743 52.1821 46.2876L51.6367 46.7556C51.273 46.3329 50.773 46.1518 50.1064 46.1518C48.5912 46.1518 47.6215 47.2538 47.6215 48.6125C47.6215 49.5636 48.2579 50.2128 49.4852 50.2128C49.9245 50.2128 50.3185 50.092 50.6821 49.8807L51.0306 48.1445Z" fill="white"/>
<path d="M54.9091 48.6429C54.9091 46.8766 56.1818 45.4575 58.1363 45.4575C59.7272 45.4575 60.6363 46.3633 60.6363 47.6918C60.6363 49.4581 59.3636 50.8772 57.4091 50.8772C55.8333 50.8772 54.9091 49.9714 54.9091 48.6429ZM59.8787 47.7371C59.8787 46.786 59.2575 46.1369 58.0757 46.1369C56.606 46.1369 55.6666 47.2691 55.6666 48.5976C55.6666 49.5487 56.303 50.1979 57.4697 50.1979C58.9545 50.213 59.8787 49.0656 59.8787 47.7371Z" fill="white"/>
<path d="M65.0911 46.1822L64.7729 47.8126H67.4396L67.3184 48.4618H64.6517L64.3032 50.1677H67.4093L67.2881 50.832H63.4244L64.4851 45.5481H68.2275L68.0911 46.1822H65.0911Z" fill="white"/>
<path d="M70.3183 50.2432L70.6516 49.6393C71.0607 50.0167 71.7122 50.2432 72.3789 50.2432C73.2425 50.2432 73.8183 49.9261 73.8183 49.3374C73.8183 48.2353 71.091 48.809 71.091 47.1031C71.091 46.0916 72.0001 45.4575 73.3031 45.4575C73.9546 45.4575 74.5759 45.6236 75.0152 45.9104L74.7122 46.5294C74.3183 46.2576 73.8031 46.1067 73.2728 46.1067C72.394 46.1067 71.8486 46.4841 71.8486 47.0427C71.8486 48.1598 74.5759 47.6314 74.5759 49.2317C74.5759 50.2583 73.6516 50.8772 72.3334 50.8772C71.5001 50.8772 70.7122 50.6055 70.3183 50.2432Z" fill="white"/>
<path d="M83.1971 45.5347L82.1365 50.8185H81.3789L81.8486 48.4785H78.788L78.3183 50.8185H77.5607L78.6213 45.5347H79.3789L78.9244 47.7992H81.9698L82.4244 45.5347H83.1971Z" fill="white"/>
<path d="M87.591 46.1822L87.2728 47.8126H89.9394L89.8182 48.4618H87.1516L86.8031 50.1677H89.9091L89.7879 50.832H85.9092L86.9698 45.5481H90.7122L90.591 46.1822H87.591Z" fill="white"/>
<path d="M96.5756 49.0975L97.5453 50.8185H96.7423L95.818 49.2032H95.6817H94.2574L93.9392 50.8185H93.1817L94.2423 45.5347H96.2271C97.4696 45.5347 98.1817 46.1083 98.1817 47.0896C98.1665 48.1313 97.5756 48.8408 96.5756 49.0975ZM97.409 47.15C97.409 46.516 96.9544 46.1838 96.1362 46.1838H94.8483L94.3786 48.554H95.6968C96.7877 48.554 97.409 48.0709 97.409 47.15Z" fill="white"/>
<path d="M102.546 46.1822L102.228 47.8126H104.894L104.773 48.4618H102.106L101.758 50.1677H104.864L104.743 50.832H100.879L101.94 45.5481H105.682L105.546 46.1822H102.546Z" fill="white"/>
<path d="M0 30.6758H4.51516C7.68183 30.6758 9.84851 32.5025 9.84851 35.4312C9.84851 38.36 7.68183 40.1867 4.51516 40.1867H0V30.6758ZM4.4091 38.0279C6.03032 38.0279 7.12123 37.0617 7.12123 35.4162C7.12123 33.7706 6.03032 32.8044 4.4091 32.8044H2.69698V38.0279H4.4091Z" fill="white"/>
<path d="M15.0306 37.6526H13.5609V40.1738H10.8488V30.6628H15.2124C17.8185 30.6628 19.4548 32.0065 19.4548 34.1804C19.4548 35.5844 18.773 36.611 17.5912 37.1846L19.6518 40.1738H16.7579L15.0306 37.6526ZM15.0609 32.7915H13.5609V35.5844H15.0609C16.1821 35.5844 16.7427 35.0711 16.7427 34.1955C16.7276 33.3048 16.1821 32.7915 15.0609 32.7915Z" fill="white"/>
<path d="M28.1969 38.1043V40.1877H20.5303V30.6768H28.0151V32.7601H23.1969V34.3604H27.4394V36.3682H23.1969V38.1043H28.1969Z" fill="white"/>
<path d="M35.6821 38.332H31.6366L30.879 40.1738H28.1215L32.3336 30.6628H34.9851L39.2124 40.1738H36.4094L35.6821 38.332ZM34.8942 36.3543L33.6669 33.3048L32.4397 36.3543H34.8942Z" fill="white"/>
<path d="M48.2275 40.1877L48.1972 35.1454L45.7427 39.2517H44.5457L42.1063 35.2813V40.1877H39.6063V30.6768H41.8336L45.1821 36.172L48.4548 30.6768H50.682L50.7123 40.1877H48.2275Z" fill="white"/>
<path d="M55.3638 39.1017L55.8638 38.0449C56.5759 38.679 57.788 39.147 59.0153 39.147C60.6668 39.147 61.3789 38.5129 61.3789 37.6826C61.3789 35.3577 55.591 36.8221 55.591 33.2894C55.591 31.825 56.7425 30.572 59.2425 30.572C60.3637 30.572 61.5152 30.874 62.3183 31.4174L61.8637 32.5044C61.0304 31.976 60.091 31.7345 59.2425 31.7345C57.6213 31.7345 56.9244 32.4138 56.9244 33.2441C56.9244 35.569 62.7122 34.1197 62.7122 37.6071C62.7122 39.0564 61.5455 40.3094 59.0153 40.3094C57.5607 40.2943 56.1213 39.8112 55.3638 39.1017Z" fill="white"/>
<path d="M66.0605 31.8543H62.7877V30.6768H70.6817V31.8543H67.409V40.1877H66.0605V31.8543Z" fill="white"/>
<path d="M71.5002 36.0814V30.6768H72.8639V36.0361C72.8639 38.1496 73.8336 39.1007 75.5457 39.1007C77.2578 39.1007 78.2426 38.1496 78.2426 36.0361V30.6768H79.5608V36.0814C79.5608 38.8441 78.0457 40.2934 75.5154 40.2934C73.0305 40.2934 71.5002 38.8441 71.5002 36.0814Z" fill="white"/>
<path d="M81.9547 30.6768H85.985C89.0608 30.6768 91.1365 32.6091 91.1365 35.4322C91.1365 38.2553 89.0456 40.1877 85.985 40.1877H81.9547V30.6768ZM85.8941 38.9951C88.2578 38.9951 89.7729 37.5609 89.7729 35.4171C89.7729 33.2885 88.2578 31.8392 85.8941 31.8392H83.3184V38.9951H85.8941Z" fill="white"/>
<path d="M92.8033 30.6768H94.167V40.1877H92.8033V30.6768Z" fill="white"/>
<path d="M95.8485 35.4332C95.8485 32.6554 98 30.572 100.939 30.572C103.849 30.572 106 32.6403 106 35.4332C106 38.226 103.849 40.2943 100.939 40.2943C98 40.2943 95.8485 38.2109 95.8485 35.4332ZM104.636 35.4332C104.636 33.3347 103.061 31.7798 100.939 31.7798C98.8031 31.7798 97.2122 33.3347 97.2122 35.4332C97.2122 37.5467 98.7879 39.0866 100.939 39.0866C103.045 39.0866 104.636 37.5316 104.636 35.4332Z" fill="white"/>
<path fill-rule="evenodd" clip-rule="evenodd" d="M63.2881 0.89209C59.076 0.89209 55.4093 3.36795 53.5457 7.02136L59.3487 12.9846C59.3335 12.8487 59.3335 12.6977 59.3335 12.5468C59.3335 10.2521 61.1063 8.38006 63.2729 8.38006C65.4547 8.38006 67.2123 10.237 67.2123 12.5468C67.2123 14.8415 65.4396 16.7134 63.2729 16.7134C62.3184 16.7134 61.4396 16.3511 60.7578 15.7624L50.076 4.39453C48.0608 2.2357 45.2578 0.89209 42.1669 0.89209C36.0608 0.89209 31.0911 6.11555 31.0911 12.5618C31.0911 19.0081 36.0457 24.2316 42.1669 24.2316C46.379 24.2316 50.0457 21.7557 51.9093 18.0872L46.1669 12.1844C46.182 12.3203 46.182 12.4562 46.182 12.592C46.182 14.8867 44.4093 16.7587 42.2426 16.7587C40.0608 16.7587 38.3032 14.9018 38.3032 12.592C38.3032 10.2973 40.076 8.42535 42.2426 8.42535C43.2275 8.42535 44.1214 8.80277 44.8184 9.43683L55.485 20.8197C57.485 22.9182 60.2426 24.2165 63.2881 24.2165C69.4093 24.2165 74.3638 18.993 74.3638 12.5468C74.3638 6.11555 69.4093 0.89209 63.2881 0.89209Z" fill="#34D399"/>
</svg>
