<svg width="56" height="56" viewBox="0 0 56 56" fill="none" xmlns="http://www.w3.org/2000/svg">
<path d="M37.3333 21C43.7766 21 49 17.866 49 14C49 10.134 43.7766 7 37.3333 7C30.89 7 25.6666 10.134 25.6666 14C25.6666 17.866 30.89 21 37.3333 21Z" stroke="#10B981" stroke-width="1.83333" stroke-linecap="round" stroke-linejoin="round"/>
<path d="M25.6666 14V23.3333C25.6666 27.1997 30.891 30.3333 37.3333 30.3333C43.7756 30.3333 49 27.1997 49 23.3333V14" stroke="#10B981" stroke-width="1.83333" stroke-linecap="round" stroke-linejoin="round"/>
<path d="M25.6666 23.3334V32.6667C25.6666 36.533 30.891 39.6667 37.3333 39.6667C43.7756 39.6667 49 36.533 49 32.6667V23.3334" stroke="#10B981" stroke-width="1.83333" stroke-linecap="round" stroke-linejoin="round"/>
<path d="M25.6666 32.6666V42C25.6666 45.8663 30.891 49 37.3333 49C43.7756 49 49 45.8663 49 42V32.6666" stroke="#10B981" stroke-width="1.83333" stroke-linecap="round" stroke-linejoin="round"/>
<path d="M16.3333 21H10.5C9.57174 21 8.6815 21.3687 8.02513 22.0251C7.36875 22.6815 7 23.5717 7 24.5C7 25.4283 7.36875 26.3185 8.02513 26.9749C8.6815 27.6313 9.57174 28 10.5 28H12.8333C13.7616 28 14.6518 28.3687 15.3082 29.0251C15.9646 29.6815 16.3333 30.5717 16.3333 31.5C16.3333 32.4283 15.9646 33.3185 15.3082 33.9749C14.6518 34.6313 13.7616 35 12.8333 35H7" stroke="#10B981" stroke-width="1.83333" stroke-linecap="round" stroke-linejoin="round"/>
<path d="M11.6666 18.6666V21M11.6666 35V37.3333V35Z" stroke="#10B981" stroke-width="1.83333" stroke-linecap="round" stroke-linejoin="round"/>
</svg>
