<svg width="69" height="116" viewBox="0 0 69 116" fill="none" xmlns="http://www.w3.org/2000/svg">
<path d="M65.7998 5.39461C64.3127 5.39461 63.1025 4.18446 63.1025 2.6973C63.1025 1.21013 64.3127 0 65.7998 0C67.287 0 68.4971 1.21013 68.4971 2.6973C68.4971 4.18446 67.3016 5.39461 65.7998 5.39461Z" fill="#10B981"/>
<path d="M65.7998 21.1701C64.3127 21.1701 63.1025 19.96 63.1025 18.4728C63.1025 16.9857 64.3127 15.7755 65.7998 15.7755C67.287 15.7755 68.4971 16.9857 68.4971 18.4728C68.5117 19.96 67.3016 21.1701 65.7998 21.1701Z" fill="#10B981"/>
<path d="M65.7998 36.9459C64.3127 36.9459 63.1025 35.7357 63.1025 34.2486C63.1025 32.7614 64.3127 31.5513 65.7998 31.5513C67.287 31.5513 68.4971 32.7614 68.4971 34.2486C68.5117 35.7357 67.3016 36.9459 65.7998 36.9459Z" fill="#10B981"/>
<path d="M65.7998 52.7214C64.3127 52.7214 63.1025 51.5113 63.1025 50.0241C63.1025 48.5369 64.3127 47.3268 65.7998 47.3268C67.287 47.3268 68.4971 48.5369 68.4971 50.0241C68.5117 51.5113 67.3016 52.7214 65.7998 52.7214Z" fill="#10B981"/>
<path d="M65.7998 68.4972C64.3127 68.4972 63.1025 67.287 63.1025 65.7998C63.1025 64.3127 64.3127 63.1025 65.7998 63.1025C67.287 63.1025 68.4971 64.3127 68.4971 65.7998C68.5117 67.287 67.3016 68.4972 65.7998 68.4972Z" fill="#10B981"/>
<path d="M65.7998 84.2727C64.3127 84.2727 63.1025 83.0625 63.1025 81.5754C63.1025 80.0882 64.3127 78.8781 65.7998 78.8781C67.287 78.8781 68.4971 80.0882 68.4971 81.5754C68.5117 83.0771 67.3016 84.2727 65.7998 84.2727Z" fill="#10B981"/>
<path d="M65.7998 100.063C64.3127 100.063 63.1025 98.8527 63.1025 97.3655C63.1025 95.8784 64.3127 94.6682 65.7998 94.6682C67.287 94.6682 68.4971 95.8784 68.4971 97.3655C68.5117 98.8527 67.3016 100.063 65.7998 100.063Z" fill="#10B981"/>
<path d="M65.7998 115.838C64.3127 115.838 63.1025 114.628 63.1025 113.141C63.1025 111.654 64.3127 110.444 65.7998 110.444C67.287 110.444 68.4971 111.654 68.4971 113.141C68.5117 114.628 67.3016 115.838 65.7998 115.838Z" fill="#10B981"/>
<path d="M50.0241 5.39461C48.537 5.39461 47.3268 4.18446 47.3268 2.6973C47.3268 1.21013 48.537 0 50.0241 0C51.5113 0 52.7214 1.21013 52.7214 2.6973C52.7214 4.18446 51.5113 5.39461 50.0241 5.39461Z" fill="#10B981"/>
<path d="M50.0241 21.1701C48.537 21.1701 47.3268 19.96 47.3268 18.4728C47.3268 16.9857 48.537 15.7755 50.0241 15.7755C51.5113 15.7755 52.7214 16.9857 52.7214 18.4728C52.7214 19.96 51.5113 21.1701 50.0241 21.1701Z" fill="#10B981"/>
<path d="M50.0241 36.9459C48.537 36.9459 47.3268 35.7357 47.3268 34.2486C47.3268 32.7614 48.537 31.5513 50.0241 31.5513C51.5113 31.5513 52.7214 32.7614 52.7214 34.2486C52.7214 35.7357 51.5113 36.9459 50.0241 36.9459Z" fill="#10B981"/>
<path d="M50.0241 52.7214C48.537 52.7214 47.3268 51.5113 47.3268 50.0241C47.3268 48.5369 48.537 47.3268 50.0241 47.3268C51.5113 47.3268 52.7214 48.5369 52.7214 50.0241C52.7214 51.5113 51.5113 52.7214 50.0241 52.7214Z" fill="#10B981"/>
<path d="M50.0241 68.4972C48.537 68.4972 47.3268 67.287 47.3268 65.7998C47.3268 64.3127 48.537 63.1025 50.0241 63.1025C51.5113 63.1025 52.7214 64.3127 52.7214 65.7998C52.7214 67.287 51.5113 68.4972 50.0241 68.4972Z" fill="#10B981"/>
<path d="M50.0241 84.2727C48.537 84.2727 47.3268 83.0625 47.3268 81.5754C47.3268 80.0882 48.537 78.8781 50.0241 78.8781C51.5113 78.8781 52.7214 80.0882 52.7214 81.5754C52.7214 83.0771 51.5113 84.2727 50.0241 84.2727Z" fill="#10B981"/>
<path d="M50.0241 100.063C48.537 100.063 47.3268 98.8527 47.3268 97.3655C47.3268 95.8784 48.537 94.6682 50.0241 94.6682C51.5113 94.6682 52.7214 95.8784 52.7214 97.3655C52.7214 98.8527 51.5113 100.063 50.0241 100.063Z" fill="#10B981"/>
<path d="M50.0241 115.838C48.537 115.838 47.3268 114.628 47.3268 113.141C47.3268 111.654 48.537 110.444 50.0241 110.444C51.5113 110.444 52.7214 111.654 52.7214 113.141C52.7214 114.628 51.5113 115.838 50.0241 115.838Z" fill="#10B981"/>
<path d="M34.2487 5.39461C32.7615 5.39461 31.5514 4.18446 31.5514 2.6973C31.5514 1.21013 32.7615 0 34.2487 0C35.7358 0 36.9459 1.21013 36.9459 2.6973C36.9459 4.18446 35.7358 5.39461 34.2487 5.39461Z" fill="#10B981"/>
<path d="M34.2487 21.1701C32.7615 21.1701 31.5514 19.96 31.5514 18.4728C31.5514 16.9857 32.7615 15.7755 34.2487 15.7755C35.7358 15.7755 36.9459 16.9857 36.9459 18.4728C36.9459 19.96 35.7358 21.1701 34.2487 21.1701Z" fill="#10B981"/>
<path d="M34.2487 36.9459C32.7615 36.9459 31.5514 35.7357 31.5514 34.2486C31.5514 32.7614 32.7615 31.5513 34.2487 31.5513C35.7358 31.5513 36.9459 32.7614 36.9459 34.2486C36.9459 35.7357 35.7358 36.9459 34.2487 36.9459Z" fill="#10B981"/>
<path d="M34.2487 52.7214C32.7615 52.7214 31.5514 51.5113 31.5514 50.0241C31.5514 48.5369 32.7615 47.3268 34.2487 47.3268C35.7358 47.3268 36.9459 48.5369 36.9459 50.0241C36.9459 51.5113 35.7358 52.7214 34.2487 52.7214Z" fill="#10B981"/>
<path d="M34.2487 68.4972C32.7615 68.4972 31.5514 67.287 31.5514 65.7998C31.5514 64.3127 32.7615 63.1025 34.2487 63.1025C35.7358 63.1025 36.9459 64.3127 36.9459 65.7998C36.9459 67.287 35.7358 68.4972 34.2487 68.4972Z" fill="#10B981"/>
<path d="M34.2487 84.2727C32.7615 84.2727 31.5514 83.0625 31.5514 81.5754C31.5514 80.0882 32.7615 78.8781 34.2487 78.8781C35.7358 78.8781 36.9459 80.0882 36.9459 81.5754C36.9459 83.0771 35.7358 84.2727 34.2487 84.2727Z" fill="#10B981"/>
<path d="M34.2487 100.063C32.7615 100.063 31.5514 98.8527 31.5514 97.3655C31.5514 95.8784 32.7615 94.6682 34.2487 94.6682C35.7358 94.6682 36.9459 95.8784 36.9459 97.3655C36.9459 98.8527 35.7358 100.063 34.2487 100.063Z" fill="#10B981"/>
<path d="M34.2487 115.838C32.7615 115.838 31.5514 114.628 31.5514 113.141C31.5514 111.654 32.7615 110.444 34.2487 110.444C35.7358 110.444 36.9459 111.654 36.9459 113.141C36.9459 114.628 35.7358 115.838 34.2487 115.838Z" fill="#10B981"/>
<path d="M18.473 5.39461C16.9858 5.39461 15.7757 4.18446 15.7757 2.6973C15.7757 1.21013 16.9858 0 18.473 0C19.9601 0 21.1702 1.21013 21.1702 2.6973C21.1702 4.18446 19.9601 5.39461 18.473 5.39461Z" fill="#10B981"/>
<path d="M18.473 21.1701C16.9858 21.1701 15.7757 19.96 15.7757 18.4728C15.7757 16.9857 16.9858 15.7755 18.473 15.7755C19.9601 15.7755 21.1702 16.9857 21.1702 18.4728C21.1702 19.96 19.9601 21.1701 18.473 21.1701Z" fill="#10B981"/>
<path d="M18.473 36.9459C16.9858 36.9459 15.7757 35.7357 15.7757 34.2486C15.7757 32.7614 16.9858 31.5513 18.473 31.5513C19.9601 31.5513 21.1702 32.7614 21.1702 34.2486C21.1702 35.7357 19.9601 36.9459 18.473 36.9459Z" fill="#10B981"/>
<path d="M18.473 52.7214C16.9858 52.7214 15.7757 51.5113 15.7757 50.0241C15.7757 48.5369 16.9858 47.3268 18.473 47.3268C19.9601 47.3268 21.1702 48.5369 21.1702 50.0241C21.1702 51.5113 19.9601 52.7214 18.473 52.7214Z" fill="#10B981"/>
<path d="M18.473 68.4972C16.9858 68.4972 15.7757 67.287 15.7757 65.7998C15.7757 64.3127 16.9858 63.1025 18.473 63.1025C19.9601 63.1025 21.1702 64.3127 21.1702 65.7998C21.1702 67.287 19.9601 68.4972 18.473 68.4972Z" fill="#10B981"/>
<path d="M18.473 84.2727C16.9858 84.2727 15.7757 83.0625 15.7757 81.5754C15.7757 80.0882 16.9858 78.8781 18.473 78.8781C19.9601 78.8781 21.1702 80.0882 21.1702 81.5754C21.1702 83.0771 19.9601 84.2727 18.473 84.2727Z" fill="#10B981"/>
<path d="M18.473 100.063C16.9858 100.063 15.7757 98.8527 15.7757 97.3655C15.7757 95.8784 16.9858 94.6682 18.473 94.6682C19.9601 94.6682 21.1702 95.8784 21.1702 97.3655C21.1702 98.8527 19.9601 100.063 18.473 100.063Z" fill="#10B981"/>
<path d="M18.473 115.838C16.9858 115.838 15.7757 114.628 15.7757 113.141C15.7757 111.654 16.9858 110.444 18.473 110.444C19.9601 110.444 21.1702 111.654 21.1702 113.141C21.1702 114.628 19.9601 115.838 18.473 115.838Z" fill="#10B981"/>
<path d="M2.69727 5.39461C1.21011 5.39461 0 4.18446 0 2.6973C0 1.21013 1.21011 0 2.69727 0C4.18444 0 5.39464 1.21013 5.39464 2.6973C5.39464 4.18446 4.18444 5.39461 2.69727 5.39461Z" fill="#10B981"/>
<path d="M2.69727 21.1701C1.21011 21.1701 0 19.96 0 18.4728C0 16.9857 1.21011 15.7755 2.69727 15.7755C4.18444 15.7755 5.39464 16.9857 5.39464 18.4728C5.39464 19.96 4.18444 21.1701 2.69727 21.1701Z" fill="#10B981"/>
<path d="M2.69727 36.9459C1.21011 36.9459 0 35.7357 0 34.2486C0 32.7614 1.21011 31.5513 2.69727 31.5513C4.18444 31.5513 5.39464 32.7614 5.39464 34.2486C5.39464 35.7357 4.18444 36.9459 2.69727 36.9459Z" fill="#10B981"/>
<path d="M2.69727 52.7214C1.21011 52.7214 0 51.5113 0 50.0241C0 48.5369 1.21011 47.3268 2.69727 47.3268C4.18444 47.3268 5.39464 48.5369 5.39464 50.0241C5.39464 51.5113 4.18444 52.7214 2.69727 52.7214Z" fill="#10B981"/>
<path d="M2.69727 68.4972C1.21011 68.4972 0 67.287 0 65.7998C0 64.3127 1.21011 63.1025 2.69727 63.1025C4.18444 63.1025 5.39464 64.3127 5.39464 65.7998C5.39464 67.287 4.18444 68.4972 2.69727 68.4972Z" fill="#10B981"/>
<path d="M2.69727 84.2727C1.21011 84.2727 0 83.0625 0 81.5754C0 80.0882 1.21011 78.8781 2.69727 78.8781C4.18444 78.8781 5.39464 80.0882 5.39464 81.5754C5.39464 83.0771 4.18444 84.2727 2.69727 84.2727Z" fill="#10B981"/>
<path d="M2.69727 100.063C1.21011 100.063 0 98.8527 0 97.3655C0 95.8784 1.21011 94.6682 2.69727 94.6682C4.18444 94.6682 5.39464 95.8784 5.39464 97.3655C5.39464 98.8527 4.18444 100.063 2.69727 100.063Z" fill="#10B981"/>
<path d="M2.69727 115.838C1.21011 115.838 0 114.628 0 113.141C0 111.654 1.21011 110.444 2.69727 110.444C4.18444 110.444 5.39464 111.654 5.39464 113.141C5.39464 114.628 4.18444 115.838 2.69727 115.838Z" fill="#10B981"/>
</svg>
