<svg width="113" height="62" viewBox="0 0 113 62" fill="none" xmlns="http://www.w3.org/2000/svg">
<path d="M1 1C8.93485 1 8.93483 11.5 16.8477 11.5C24.7606 11.5 24.7826 1 32.6954 1C40.6303 1 40.6303 11.5 48.5432 11.5C56.478 11.5 56.478 1 64.4128 1C72.3477 1 72.3477 11.5 80.2606 11.5C88.1954 11.5 88.1954 1 96.1303 1C104.065 1 104.065 11.5 112 11.5" stroke="#10B981" stroke-width="2" stroke-miterlimit="10" stroke-linecap="round" stroke-linejoin="round"/>
<path d="M1 17.5C8.93485 17.5 8.93483 28 16.8477 28C24.7606 28 24.7826 17.5 32.6954 17.5C40.6303 17.5 40.6303 28 48.5432 28C56.478 28 56.478 17.5 64.4128 17.5C72.3477 17.5 72.3477 28 80.2606 28C88.1954 28 88.1954 17.5 96.1303 17.5C104.065 17.5 104.065 28 112 28" stroke="#10B981" stroke-width="2" stroke-miterlimit="10" stroke-linecap="round" stroke-linejoin="round"/>
<path d="M1 34C8.93485 34 8.93483 44.5 16.8477 44.5C24.7606 44.5 24.7826 34 32.6954 34C40.6303 34 40.6303 44.5 48.5432 44.5C56.478 44.5 56.478 34 64.4128 34C72.3477 34 72.3477 44.5 80.2606 44.5C88.1954 44.5 88.1954 34 96.1303 34C104.065 34 104.065 44.5 112 44.5" stroke="#10B981" stroke-width="2" stroke-miterlimit="10" stroke-linecap="round" stroke-linejoin="round"/>
<path d="M1 50.5C8.93485 50.5 8.93483 61 16.8477 61C24.7606 61 24.7826 50.5 32.6954 50.5C40.6303 50.5 40.6303 61 48.5432 61C56.478 61 56.478 50.5 64.4128 50.5C72.3477 50.5 72.3477 61 80.2606 61C88.1954 61 88.1954 50.5 96.1303 50.5C104.065 50.5 104.065 61 112 61" stroke="#10B981" stroke-width="2" stroke-miterlimit="10" stroke-linecap="round" stroke-linejoin="round"/>
</svg>
