<svg width="40" height="40" viewBox="0 0 40 40" fill="none" xmlns="http://www.w3.org/2000/svg">
<path d="M20 23.3333C22.7614 23.3333 25 21.0947 25 18.3333C25 15.5718 22.7614 13.3333 20 13.3333C17.2386 13.3333 15 15.5718 15 18.3333C15 21.0947 17.2386 23.3333 20 23.3333Z" stroke="#10B981" stroke-width="1.83333" stroke-linecap="round" stroke-linejoin="round"/>
<path d="M29.4283 27.7617L22.3567 34.8333C21.7317 35.4577 20.8843 35.8085 20.0008 35.8085C19.1174 35.8085 18.27 35.4577 17.645 34.8333L10.5717 27.7617C8.70705 25.8969 7.43724 23.5212 6.92282 20.9348C6.40841 18.3484 6.67249 15.6675 7.68168 13.2312C8.69087 10.7949 10.3998 8.71257 12.5925 7.24751C14.7851 5.78246 17.363 5.00049 20 5.00049C22.6371 5.00049 25.2149 5.78246 27.4075 7.24751C29.6002 8.71257 31.3092 10.7949 32.3183 13.2312C33.3275 15.6675 33.5916 18.3484 33.0772 20.9348C32.5628 23.5212 31.293 25.8969 29.4283 27.7617V27.7617Z" stroke="#10B981" stroke-width="1.83333" stroke-linecap="round" stroke-linejoin="round"/>
</svg>
