<svg width="108" height="142" viewBox="0 0 108 142" fill="none" xmlns="http://www.w3.org/2000/svg">
<path d="M15 7.5C15 11.0837 12.0837 14 8.50002 14C4.91631 14 2 11.0837 2 7.5C2 3.91629 4.91631 1 8.50002 1C12.0837 1 15 3.90178 15 7.5Z" stroke="#10B981" stroke-width="2" stroke-miterlimit="10" stroke-linecap="round" stroke-linejoin="round"/>
<path d="M16 133.5C16 137.651 12.637 141 8.50002 141C4.36306 141 1 137.637 1 133.5C1 129.349 4.36306 126 8.50002 126C12.637 126 16 129.363 16 133.5Z" stroke="#10B981" stroke-width="2" stroke-miterlimit="10" stroke-linecap="round" stroke-linejoin="round"/>
<path d="M91 120V138L107 129L91 120Z" stroke="#10B981" stroke-width="2" stroke-miterlimit="10" stroke-linecap="round" stroke-linejoin="round"/>
</svg>
