<svg width="44" height="44" viewBox="0 0 44 44" fill="none" xmlns="http://www.w3.org/2000/svg">
<path d="M22 25.6666C25.0376 25.6666 27.5 23.2042 27.5 20.1666C27.5 17.1291 25.0376 14.6666 22 14.6666C18.9624 14.6666 16.5 17.1291 16.5 20.1666C16.5 23.2042 18.9624 25.6666 22 25.6666Z" stroke="#374151" stroke-width="1.83333" stroke-linecap="round" stroke-linejoin="round"/>
<path d="M32.3712 30.5378L24.5923 38.3166C23.9048 39.0035 22.9727 39.3893 22.0009 39.3893C21.0291 39.3893 20.097 39.0035 19.4095 38.3166L11.6288 30.5378C9.57773 28.4866 8.18094 25.8732 7.61508 23.0282C7.04922 20.1832 7.33972 17.2342 8.44983 14.5543C9.55993 11.8744 11.4398 9.58378 13.8517 7.97221C16.2636 6.36065 19.0992 5.50049 22 5.50049C24.9007 5.50049 27.7364 6.36065 30.1483 7.97221C32.5602 9.58378 34.44 11.8744 35.5501 14.5543C36.6603 17.2342 36.9507 20.1832 36.3849 23.0282C35.819 25.8732 34.4222 28.4866 32.3712 30.5378V30.5378Z" stroke="#374151" stroke-width="1.83333" stroke-linecap="round" stroke-linejoin="round"/>
</svg>
