<svg width="30" height="30" viewBox="0 0 30 30" fill="none" xmlns="http://www.w3.org/2000/svg">
<path d="M14.9915 29.7899C23.2711 29.7899 29.983 23.1212 29.983 14.8949C29.983 6.66869 23.2711 0 14.9915 0C6.71192 0 0 6.66869 0 14.8949C0 23.1212 6.71192 29.7899 14.9915 29.7899Z" fill="#4176FA"/>
<path d="M20.3659 12.3042C16.0359 12.3042 16.0303 16.5904 16.0303 16.6124C16.0303 16.6124 15.7336 20.9039 20.3659 20.9039C20.3659 20.9039 24.2291 21.1221 24.2291 17.9172H22.2454C22.2454 17.9172 22.3112 19.1238 20.4319 19.1238C20.4319 19.1238 18.4482 19.2549 18.4482 17.1745H24.2951C24.2951 17.1745 24.9381 12.3042 20.3659 12.3042ZM18.4261 15.673C18.4261 15.673 18.6679 13.9476 20.41 13.9476C22.1575 13.9476 22.13 15.673 22.13 15.673H18.4261ZM13.4699 14.5702C13.4699 14.5702 15.1898 14.4446 15.1898 12.4354C15.1898 10.4317 13.7831 9.44873 11.9971 9.44873H6.12244V20.6689H11.9966C11.9966 20.6689 15.5851 20.7783 15.5851 17.3548C15.5853 17.3548 15.7392 14.5702 13.4699 14.5702ZM8.7109 11.4415H11.9969C11.9969 11.4415 12.7938 11.4415 12.7938 12.6098C12.7938 13.7782 12.3266 13.9476 11.7935 13.9476H8.7109V11.4415ZM11.8322 18.6761H8.7109V15.673H11.9969C11.9969 15.673 13.1895 15.6621 13.1839 17.2181C13.1839 18.5287 12.2994 18.6652 11.8322 18.6761ZM17.937 10.1094V11.4909H22.5971V10.1094H17.937Z" fill="#F1F2F2"/>
</svg>
