<svg width="25" height="30" viewBox="0 0 25 30" fill="none" xmlns="http://www.w3.org/2000/svg">
<path d="M12.5878 0C4.37021 0 0 5.23208 0 10.9371C0 13.5829 1.48797 16.8823 3.86985 17.9287C4.23153 18.0907 4.4283 18.0218 4.50889 17.6885C4.5801 17.4353 4.89306 16.2157 5.04485 15.6404C5.0917 15.4561 5.06734 15.2959 4.91742 15.1228C4.12659 14.2141 3.49879 12.5589 3.49879 11.006C3.49879 7.027 6.68275 3.16345 12.1005 3.16345C16.7856 3.16345 20.0632 6.18726 20.0632 10.5126C20.0632 15.4002 17.4602 18.7815 14.0776 18.7815C12.2055 18.7815 10.8112 17.3217 11.2535 15.5156C11.7876 13.3651 12.8351 11.0525 12.8351 9.50154C12.8351 8.11066 12.0443 6.95997 10.4289 6.95997C8.52303 6.95997 6.97697 8.83496 6.97697 11.3523C6.97697 12.9517 7.54667 14.0317 7.54667 14.0317C7.54667 14.0317 5.66141 21.5986 5.31097 23.0119C4.71878 25.4045 5.39155 29.2792 5.44964 29.6125C5.48525 29.7968 5.69326 29.8545 5.80945 29.7037C5.99498 29.4616 8.27379 26.2312 8.91283 23.8963C9.1452 23.0454 10.0991 19.5952 10.0991 19.5952C10.7269 20.7217 12.5391 21.6657 14.4693 21.6657C20.2113 21.6657 24.3604 16.6514 24.3604 10.4288C24.3397 4.4631 19.2012 0 12.5878 0Z" fill="#D32F2F"/>
</svg>
