<svg width="30" height="30" viewBox="0 0 30 30" fill="none" xmlns="http://www.w3.org/2000/svg">
<path d="M14.9915 29.7904C23.271 29.7904 29.9829 23.1216 29.9829 14.8952C29.9829 6.66881 23.271 0 14.9915 0C6.71191 0 0 6.66881 0 14.8952C0 23.1216 6.71191 29.7904 14.9915 29.7904Z" fill="#4176FA"/>
<path d="M20.3659 12.305C16.0359 12.305 16.0303 16.5911 16.0303 16.6131C16.0303 16.6131 15.7336 20.9045 20.3659 20.9045C20.3659 20.9045 24.2291 21.1227 24.2291 17.9179H22.2454C22.2454 17.9179 22.3111 19.1244 20.4319 19.1244C20.4319 19.1244 18.4482 19.2556 18.4482 17.1752H24.2951C24.2951 17.1752 24.9381 12.305 20.3659 12.305ZM18.426 15.6737C18.426 15.6737 18.6679 13.9483 20.41 13.9483C22.1575 13.9483 22.1299 15.6737 22.1299 15.6737H18.426ZM13.4699 14.571C13.4699 14.571 15.1898 14.4454 15.1898 12.4362C15.1898 10.4325 13.7831 9.44958 11.9971 9.44958H6.12244V20.6695H11.9966C11.9966 20.6695 15.585 20.7789 15.585 17.3555C15.5853 17.3555 15.7392 14.571 13.4699 14.571ZM8.7109 11.4423H11.9968C11.9968 11.4423 12.7937 11.4423 12.7937 12.6106C12.7937 13.7789 12.3266 13.9483 11.7935 13.9483H8.7109V11.4423ZM11.8322 18.6767H8.7109V15.6737H11.9968C11.9968 15.6737 13.1895 15.6628 13.1839 17.2187C13.1839 18.5294 12.2994 18.6658 11.8322 18.6767ZM17.937 10.1102V11.4917H22.5971V10.1102H17.937Z" fill="#F1F2F2"/>
</svg>
