<svg width="30" height="30" viewBox="0 0 30 30" fill="none" xmlns="http://www.w3.org/2000/svg">
<path d="M24.3025 3.30542C24.3802 3.36712 24.4535 3.43725 24.5305 3.50076L24.531 3.49871C24.4607 3.42846 24.3904 3.35815 24.3025 3.30542Z" fill="#FF7CB9"/>
<path d="M29.9831 15.2101C29.9655 15.821 29.9129 16.4145 29.8249 17.008L25.4798 21.4591L21.0703 28.4412C20.5257 28.6855 19.946 28.9124 19.3486 29.087L14.9917 25.0025L14.0431 24.1122L7.26179 27.5858C6.62934 27.2019 6.01446 26.7829 5.45228 26.3116L3.78332 18.4044L0.0531006 13.5169C0.123314 12.9235 0.211154 12.3474 0.33413 11.7714L6.61171 7.47748L7.94688 1.82198C8.49149 1.52519 9.07123 1.26342 9.65104 1.05396L14.9917 2.65984L17.0999 3.30568L24.5311 3.49769C25.0405 3.91661 25.5501 4.37045 25.9893 4.87671L25.919 11.1256L29.9831 15.2101Z" fill="#FA5E97"/>
<path d="M29.9829 15.2096C29.9653 15.8205 29.9127 16.414 29.8247 17.0075L25.4796 21.4586L21.0701 28.4407C20.5255 28.685 19.9458 28.9119 19.3484 29.0865L14.9915 25.0019V2.6593L17.0997 3.30514L24.5309 3.49715C25.0403 3.91607 25.5499 4.36991 25.9891 4.87617L25.9188 11.1251L29.9829 15.2096Z" fill="#D94F88"/>
<path d="M10.3185 11.5082C11.759 11.2289 13.1646 10.8449 14.4996 10.426C12.7254 7.19687 10.5293 4.28196 7.94679 1.82092C4.15216 3.8456 1.26503 7.45875 0.333984 11.77C3.12736 12.3285 6.57655 12.2588 10.3185 11.5082Z" fill="#FF7CB9"/>
<path d="M24.5308 3.49673L24.2849 4.45675C23.8984 5.99277 20.6308 8.19208 16.3442 9.78053L16.1509 9.85029C15.782 9.16955 15.3955 8.48876 14.9915 7.84293C13.4806 5.3644 11.6711 3.07781 9.6508 1.05311C11.3022 0.40728 13.1116 0 14.9914 0C18.3468 0 21.474 1.17529 23.9687 3.0429C24.1619 3.18254 24.3552 3.32224 24.5308 3.49673Z" fill="#FF7CB9"/>
<path d="M16.836 15.6106C16.2036 15.8375 15.5887 16.082 14.9914 16.3612C9.89658 18.6305 6.10195 22.401 5.50458 25.9969C5.48713 26.1016 5.4695 26.2063 5.45194 26.3111C2.16672 23.5879 0 19.4859 0 14.895C0 14.4236 0.017568 13.9698 0.0527626 13.5159C1.44058 13.7778 2.90458 13.8825 4.27494 13.8825C6.66419 13.8825 8.9304 13.5683 10.6696 13.2192C12.163 12.9225 13.6035 12.5384 14.9914 12.102C15.0968 12.0672 15.2022 12.0323 15.3076 11.9973C15.8698 13.1669 16.3792 14.3713 16.836 15.6106Z" fill="#FF7CB9"/>
<path d="M19.348 29.0859C17.9778 29.5048 16.5021 29.7899 14.9912 29.7899C12.1628 29.7899 9.51 28.9463 7.26124 27.5847C7.1734 27.1658 7.1734 26.7294 7.24378 26.2756C7.70044 23.5003 10.8628 20.3584 14.9912 18.2987C15.7642 17.9146 16.5724 17.548 17.4156 17.2513C18.6102 20.9868 19.2778 24.9839 19.348 29.0859Z" fill="#FF7CB9"/>
<path d="M29.8243 17.0074C29.0865 22.1217 25.6725 26.3981 21.0696 28.4404C20.9466 24.3909 20.2439 20.4461 19.0668 16.7282C23.0021 15.6459 26.7324 15.7681 29.8243 17.0074Z" fill="#FF637B"/>
<path d="M29.9824 14.8953V15.2095C26.627 13.9701 22.6507 13.9178 18.5047 15.0873C18.0479 13.8306 17.5209 12.6087 16.9587 11.4217C19.8398 10.3395 25.2333 7.86079 25.9886 4.87598C28.4306 7.51162 29.9824 11.0376 29.9824 14.8953Z" fill="#FF637B"/>
<path d="M16.8362 15.6119C16.2037 15.8389 15.5889 16.0834 14.9915 16.3627V12.1021C15.0969 12.0672 15.2023 12.0323 15.3077 11.9973C15.8699 13.1673 16.3793 14.3722 16.8362 15.6119Z" fill="#FA5E97"/>
<path d="M17.4159 17.2513C18.6105 20.9867 19.2781 24.9839 19.3483 29.0859C17.9781 29.5048 16.5024 29.7899 14.9915 29.7899V18.2987C15.7645 17.9146 16.5727 17.5481 17.4159 17.2513Z" fill="#FA5E97"/>
<path d="M16.1509 9.85055C15.7821 9.1698 15.3955 8.48899 14.9915 7.84315V0C18.3469 0 21.4741 1.17532 23.9688 3.04297C24.162 3.18267 24.3553 3.32231 24.5309 3.4968L24.285 4.45684C23.8986 5.9929 20.6309 8.19225 16.3443 9.78073L16.1509 9.85055Z" fill="#FA5E97"/>
<path d="M29.8243 17.0074C29.0865 22.1217 25.6725 26.3981 21.0696 28.4404C20.9466 24.3909 20.2439 20.4461 19.0668 16.7282C23.0021 15.6459 26.7324 15.7681 29.8243 17.0074Z" fill="#FA5E97"/>
<path d="M29.9824 14.8953V15.2095C26.627 13.9701 22.6507 13.9178 18.5047 15.0873C18.0479 13.8306 17.5209 12.6087 16.9587 11.4217C19.8398 10.3395 25.2333 7.86079 25.9886 4.87598C28.4306 7.51162 29.9824 11.0376 29.9824 14.8953Z" fill="#FA5E97"/>
</svg>
