<svg width="30" height="30" viewBox="0 0 30 30" fill="none" xmlns="http://www.w3.org/2000/svg">
<path d="M29.8931 8.75393C29.8201 7.16842 29.5667 6.08566 29.1961 5.13835C28.8198 4.14446 28.2296 3.2442 27.4669 2.50008C26.7182 1.74233 25.8119 1.15572 24.8116 0.781617C23.8579 0.41365 22.7683 0.162051 21.1725 0.090003C19.5738 0.0172733 19.063 0 14.9916 0C10.9202 0 10.4094 0.0172733 8.81068 0.0895484C7.21489 0.162051 6.12534 0.413877 5.17167 0.782072C4.17133 1.15595 3.26523 1.74233 2.51629 2.50008C1.75363 3.24397 1.16321 4.14423 0.786684 5.13813C0.416332 6.08566 0.163101 7.16842 0.0905865 8.7537C0.0173853 10.3424 0 10.8497 0 14.8948C0 18.9402 0.0173853 19.4477 0.0905865 21.0362C0.16333 22.6214 0.416789 23.7042 0.78737 24.6517C1.16367 25.6454 1.75386 26.5459 2.51652 27.2898C3.26523 28.0475 4.17155 28.6339 5.17189 29.0078C6.12534 29.3762 7.21512 29.6278 8.81091 29.7003C10.4099 29.7728 10.9205 29.7899 14.9918 29.7899C19.0632 29.7899 19.574 29.7728 21.1728 29.7003C22.7685 29.6278 23.8581 29.3762 24.8118 29.0078C26.8255 28.2341 28.4174 26.6525 29.1961 24.6517C29.5669 23.7042 29.8201 22.6214 29.8931 21.0362C29.9658 19.4475 29.9832 18.9402 29.9832 14.895C29.9832 10.8497 29.9658 10.3424 29.8931 8.75393ZM27.1945 20.9141C27.1279 22.3664 26.8836 23.1551 26.6784 23.6799C26.174 24.979 25.1407 26.0056 23.8332 26.5068C23.305 26.7107 22.5112 26.9534 21.0495 27.0195C19.469 27.0914 18.9948 27.1064 14.9916 27.1064C10.9882 27.1064 10.5142 27.0914 8.93352 27.0195C7.47201 26.9534 6.67824 26.7107 6.14982 26.5068C5.49878 26.2679 4.90974 25.8872 4.42616 25.3924C3.92816 24.912 3.545 24.327 3.30458 23.6799C3.09939 23.1551 2.85508 22.3664 2.78851 20.9141C2.71645 19.3436 2.70112 18.8724 2.70112 14.8953C2.70112 10.9179 2.71645 10.4469 2.78851 8.87621C2.8553 7.42388 3.09939 6.63522 3.30458 6.11043C3.545 5.46337 3.92839 4.87812 4.42616 4.39765C4.90974 3.90286 5.49878 3.52216 6.15005 3.28352C6.67824 3.07942 7.47201 2.83691 8.93375 2.77055C10.5144 2.69895 10.9886 2.68373 14.9916 2.68373H14.9914C18.9943 2.68373 19.4685 2.69895 21.0495 2.77077C22.5112 2.83691 23.3047 3.07965 23.8332 3.28352C24.4842 3.52239 25.0732 3.90309 25.5568 4.39765C26.0548 4.87812 26.438 5.46337 26.6782 6.11043C26.8836 6.63522 27.1279 7.42388 27.1945 8.87621C27.2665 10.4467 27.2819 10.9179 27.2819 14.895C27.2819 18.8724 27.2668 19.3434 27.1945 20.9141Z" fill="url(#paint0_linear_1_344)"/>
<path d="M14.9913 7.24609C10.7397 7.24609 7.29309 10.6708 7.29309 14.895C7.29309 19.1192 10.7397 22.5437 14.9913 22.5437C19.2431 22.5437 22.6898 19.1192 22.6898 14.895C22.6898 10.6708 19.2431 7.24609 14.9913 7.24609ZM14.9913 19.8599C12.2316 19.8597 9.9942 17.6369 9.99443 14.8948C9.99443 12.1529 12.2316 9.92982 14.9915 9.92982C17.7514 9.93005 19.9886 12.1529 19.9886 14.8948C19.9886 17.6369 17.7512 19.8599 14.9913 19.8599Z" fill="url(#paint1_linear_1_344)"/>
<path d="M24.7934 6.9448C24.7934 7.93222 23.988 8.73276 22.9945 8.73276C22.0008 8.73276 21.1953 7.93222 21.1953 6.9448C21.1953 5.95715 22.0008 5.15662 22.9945 5.15662C23.988 5.15662 24.7934 5.95715 24.7934 6.9448Z" fill="url(#paint2_linear_1_344)"/>
<defs>
<linearGradient id="paint0_linear_1_344" x1="2.51614" y1="27.2899" x2="27.3058" y2="2.3395" gradientUnits="userSpaceOnUse">
<stop stop-color="#FFD600"/>
<stop offset="0.5" stop-color="#FF0100"/>
<stop offset="1" stop-color="#D800B9"/>
</linearGradient>
<linearGradient id="paint1_linear_1_344" x1="9.54791" y1="20.3034" x2="20.3647" y2="9.41656" gradientUnits="userSpaceOnUse">
<stop stop-color="#FF6400"/>
<stop offset="0.5" stop-color="#FF0100"/>
<stop offset="1" stop-color="#FD0056"/>
</linearGradient>
<linearGradient id="paint2_linear_1_344" x1="21.7223" y1="8.20899" x2="24.2509" y2="5.66493" gradientUnits="userSpaceOnUse">
<stop stop-color="#F30072"/>
<stop offset="1" stop-color="#E50097"/>
</linearGradient>
</defs>
</svg>
