<svg width="182" height="112" viewBox="0 0 182 112" fill="none" xmlns="http://www.w3.org/2000/svg">
<path d="M59.5 111C63.6422 111 67 107.642 67 103.5C67 99.3579 63.6422 96 59.5 96C55.3579 96 52 99.3579 52 103.5C52 107.642 55.3579 111 59.5 111Z" stroke="#10B981" stroke-width="2" stroke-miterlimit="10" stroke-linecap="round" stroke-linejoin="round"/>
<path d="M107 1C112.29 1 112.29 9 117.565 9C122.855 9 122.855 1 128.13 1C133.42 1 133.42 9 138.695 9C143.985 9 143.985 1 149.275 1C154.565 1 154.565 9 159.84 9C165.13 9 165.13 1 170.42 1C175.71 1 175.71 9 181 9" stroke="#10B981" stroke-width="2" stroke-miterlimit="10" stroke-linecap="round" stroke-linejoin="round"/>
<path d="M1 16.1885L10.9582 26.1467" stroke="#10B981" stroke-width="2" stroke-miterlimit="10" stroke-linecap="round" stroke-linejoin="round"/>
<path d="M1 26.1467L10.9582 16.1885" stroke="#10B981" stroke-width="2" stroke-miterlimit="10" stroke-linecap="round" stroke-linejoin="round"/>
</svg>
