<svg width="30" height="30" viewBox="0 0 30 30" fill="none" xmlns="http://www.w3.org/2000/svg">
<path d="M6.64484 18.0025L5.60118 21.8736L1.78662 21.9538C0.646623 19.853 0 17.4493 0 14.895C0 12.4251 0.604577 10.0958 1.67623 8.04492H1.67705L5.07308 8.66353L6.56074 12.0175C6.24938 12.9194 6.07967 13.8876 6.07967 14.895C6.07979 15.9884 6.27913 17.036 6.64484 18.0025Z" fill="#FBBB00"/>
<path d="M29.7215 12.1125C29.8936 13.0136 29.9834 13.9441 29.9834 14.8952C29.9834 15.9616 29.8706 17.0018 29.6556 18.0052C28.9258 21.4196 27.0189 24.4011 24.3773 26.511L24.3765 26.5102L20.099 26.2933L19.4936 22.5384C21.2464 21.517 22.6163 19.9186 23.3379 18.0052H15.3215V12.1125H23.4548H29.7215Z" fill="#518EF8"/>
<path d="M24.3768 26.5102L24.3776 26.511C21.8085 28.5627 18.5449 29.7904 14.9923 29.7904C9.28321 29.7904 4.31957 26.6198 1.78748 21.954L6.64571 18.0027C7.91172 21.3598 11.1711 23.7496 14.9923 23.7496C16.6348 23.7496 18.1735 23.3085 19.4939 22.5384L24.3768 26.5102Z" fill="#28B446"/>
<path d="M24.5618 3.42911L19.7052 7.37955C18.3387 6.53088 16.7233 6.04063 14.9928 6.04063C11.0851 6.04063 7.76472 8.54002 6.56213 12.0175L1.67837 8.04494H1.67755C4.17257 3.26544 9.19881 0 14.9928 0C18.6302 0 21.9654 1.28737 24.5618 3.42911Z" fill="#F14336"/>
</svg>
