<svg width="30" height="30" viewBox="0 0 30 30" fill="none" xmlns="http://www.w3.org/2000/svg">
<path d="M29.9747 29.79C29.9751 29.79 29.9754 29.7897 29.9754 29.7894C29.9754 29.789 29.9756 29.7888 29.976 29.7888H29.9791C29.9812 29.7888 29.9828 29.7871 29.9828 29.785V18.8632C29.9828 13.5184 28.8247 9.40112 22.5357 9.40112C19.5309 9.40112 17.5084 11.0294 16.6706 12.5835C16.661 12.6013 16.6426 12.6123 16.6224 12.6123C16.5922 12.6123 16.5678 12.5878 16.5678 12.5577V10.9001C16.5678 10.3478 16.1201 9.90011 15.5678 9.90011H11.6049C11.0526 9.90011 10.6049 10.3478 10.6049 10.9001V28.7888C10.6049 29.3411 11.0526 29.7888 11.6049 29.7888H15.8139C16.3662 29.7888 16.8139 29.3411 16.8139 28.7888V19.9406C16.8139 17.3477 17.3086 14.8403 20.5406 14.8403C23.7251 14.8403 23.7725 17.7995 23.7725 20.107V28.79C23.7725 29.3423 24.2203 29.79 24.7725 29.79H29.9747Z" fill="#0077B5"/>
<path d="M0.495117 10.9012C0.495117 10.349 0.942832 9.90125 1.49512 9.90125H5.71167C6.26395 9.90125 6.71167 10.349 6.71167 10.9012V28.7901C6.71167 29.3424 6.26395 29.7901 5.71167 29.7901H1.49512C0.942832 29.7901 0.495117 29.3424 0.495117 28.7901V10.9012Z" fill="#0077B5"/>
<path d="M3.60049 0C1.61285 0 0 1.60256 0 3.57752C0 5.55248 1.61285 7.18856 3.60049 7.18856C5.58814 7.18856 7.20099 5.55248 7.20099 3.57752C7.19974 1.60256 5.58689 0 3.60049 0V0Z" fill="#0077B5"/>
</svg>
