<svg width="189" height="141" viewBox="0 0 189 141" fill="none" xmlns="http://www.w3.org/2000/svg">
<path d="M188 84.5C188 88.0837 185.084 91 181.5 91C177.916 91 175 88.0837 175 84.5C175 80.9163 177.916 78 181.5 78C185.084 78 188 80.9018 188 84.5Z" stroke="#10B981" stroke-width="2" stroke-miterlimit="10" stroke-linecap="round" stroke-linejoin="round"/>
<path d="M1 26C6.2899 26 6.28993 34 11.5652 34C16.8551 34 16.8551 26 22.1303 26C27.4202 26 27.4202 34 32.6955 34C37.9854 34 37.9854 26 43.2753 26C48.5652 26 48.5652 34 53.8404 34C59.1303 34 59.1303 26 64.4202 26C69.7101 26 69.7101 34 75 34" stroke="#10B981" stroke-width="2" stroke-miterlimit="10" stroke-linecap="round" stroke-linejoin="round"/>
<path d="M138 17.3284L127.918 1L119 18L138 17.3284Z" stroke="#10B981" stroke-width="2" stroke-miterlimit="10" stroke-linecap="round" stroke-linejoin="round"/>
<path d="M73.8191 129.704L83.7772 139.662" stroke="#10B981" stroke-width="2" stroke-miterlimit="10" stroke-linecap="round" stroke-linejoin="round"/>
<path d="M73.8191 139.662L83.7772 129.704" stroke="#10B981" stroke-width="2" stroke-miterlimit="10" stroke-linecap="round" stroke-linejoin="round"/>
</svg>
