<svg width="30" height="30" viewBox="0 0 30 30" fill="none" xmlns="http://www.w3.org/2000/svg">
<path d="M29.8931 8.75401C29.8202 7.16849 29.5667 6.08571 29.1961 5.1384C28.8198 4.14449 28.2296 3.24423 27.467 2.50011C26.7183 1.74235 25.8119 1.15573 24.8116 0.781624C23.8579 0.413654 22.7684 0.162052 21.1726 0.0900038C19.5738 0.0172735 19.063 0 14.9916 0C10.9203 0 10.4095 0.0172735 8.8107 0.0895492C7.21491 0.162052 6.12535 0.413881 5.17168 0.782079C4.17133 1.15596 3.26524 1.74235 2.5163 2.50011C1.75363 3.244 1.16322 4.14427 0.786686 5.13817C0.416333 6.08571 0.163102 7.16849 0.0905867 8.75378C0.0173853 10.3425 0 10.8498 0 14.8949C0 18.9403 0.0173853 19.4479 0.0905867 21.0363C0.163331 22.6216 0.41679 23.7044 0.787372 24.652C1.16367 25.6456 1.75386 26.5461 2.51653 27.29C3.26524 28.0478 4.17156 28.6342 5.1719 29.008C6.12535 29.3765 7.21514 29.6281 8.81093 29.7006C10.4099 29.7731 10.9205 29.7901 14.9919 29.7901C19.0632 29.7901 19.574 29.7731 21.1728 29.7006C22.7686 29.6281 23.8582 29.3765 24.8118 29.008C26.8256 28.2344 28.4175 26.6527 29.1961 24.652C29.5669 23.7044 29.8202 22.6216 29.8931 21.0363C29.9659 19.4476 29.9833 18.9403 29.9833 14.8952C29.9833 10.8498 29.9659 10.3425 29.8931 8.75401ZM27.1945 20.9143C27.128 22.3666 26.8837 23.1553 26.6785 23.6801C26.1741 24.9792 25.1408 26.0059 23.8332 26.507C23.305 26.7109 22.5112 26.9536 21.0495 27.0198C19.469 27.0916 18.9948 27.1066 14.9916 27.1066C10.9882 27.1066 10.5142 27.0916 8.93354 27.0198C7.47203 26.9536 6.67825 26.7109 6.14983 26.507C5.49879 26.2682 4.90975 25.8875 4.42617 25.3927C3.92817 24.9122 3.545 24.3272 3.30458 23.6801C3.09939 23.1553 2.85508 22.3666 2.78851 20.9143C2.71646 19.3438 2.70113 18.8726 2.70113 14.8954C2.70113 10.918 2.71646 10.447 2.78851 8.87628C2.85531 7.42395 3.09939 6.63528 3.30458 6.11049C3.545 5.46341 3.9284 4.87816 4.42617 4.39769C4.90975 3.90289 5.49879 3.52219 6.15006 3.28355C6.67825 3.07945 7.47203 2.83694 8.93377 2.77057C10.5145 2.69898 10.9887 2.68375 14.9916 2.68375H14.9914C18.9944 2.68375 19.4686 2.69898 21.0495 2.7708C22.5112 2.83694 23.3048 3.07968 23.8332 3.28355C24.4843 3.52242 25.0733 3.90312 25.5569 4.39769C26.0549 4.87816 26.438 5.46341 26.6782 6.11049C26.8837 6.63528 27.128 7.42395 27.1945 8.87628C27.2666 10.4468 27.2819 10.918 27.2819 14.8952C27.2819 18.8726 27.2668 19.3435 27.1945 20.9143Z" fill="url(#paint0_linear_1_326)"/>
<path d="M14.9915 7.24585C10.7398 7.24585 7.29321 10.6706 7.29321 14.8949C7.29321 19.1192 10.7398 22.5437 14.9915 22.5437C19.2433 22.5437 22.6899 19.1192 22.6899 14.8949C22.6899 10.6706 19.2433 7.24585 14.9915 7.24585ZM14.9915 19.8599C12.2318 19.8597 9.99434 17.6368 9.99457 14.8947C9.99457 12.1527 12.2318 9.92963 14.9917 9.92963C17.7516 9.92985 19.9888 12.1527 19.9888 14.8947C19.9888 17.6368 17.7514 19.8599 14.9915 19.8599Z" fill="url(#paint1_linear_1_326)"/>
<path d="M24.7935 6.94493C24.7935 7.93243 23.988 8.73302 22.9946 8.73302C22.0009 8.73302 21.1954 7.93243 21.1954 6.94493C21.1954 5.95721 22.0009 5.15662 22.9946 5.15662C23.988 5.15662 24.7935 5.95721 24.7935 6.94493Z" fill="url(#paint2_linear_1_326)"/>
<defs>
<linearGradient id="paint0_linear_1_326" x1="2.51614" y1="27.2902" x2="27.3061" y2="2.33969" gradientUnits="userSpaceOnUse">
<stop stop-color="#FFD600"/>
<stop offset="0.5" stop-color="#FF0100"/>
<stop offset="1" stop-color="#D800B9"/>
</linearGradient>
<linearGradient id="paint1_linear_1_326" x1="9.54804" y1="20.3034" x2="20.365" y2="9.41649" gradientUnits="userSpaceOnUse">
<stop stop-color="#FF6400"/>
<stop offset="0.5" stop-color="#FF0100"/>
<stop offset="1" stop-color="#FD0056"/>
</linearGradient>
<linearGradient id="paint2_linear_1_326" x1="21.7224" y1="8.20922" x2="24.2512" y2="5.66519" gradientUnits="userSpaceOnUse">
<stop stop-color="#F30072"/>
<stop offset="1" stop-color="#E50097"/>
</linearGradient>
</defs>
</svg>
