<svg width="28" height="30" viewBox="0 0 28 30" fill="none" xmlns="http://www.w3.org/2000/svg">
<path d="M3.22316 26.3099H21.0368L20.186 23.5729C20.3122 23.6821 27.4843 29.7904 27.4843 29.7904V3.07213C27.3994 1.41132 25.9602 0 24.1762 0L3.22941 0.0037238C1.44668 0.0037238 0 1.41753 0 3.07834V23.2365C0 24.9879 1.44418 26.3099 3.22316 26.3099ZM16.4007 7.05412L16.3594 7.06901L16.3744 7.05412H16.4007ZM6.86734 8.62928C9.15728 6.97343 11.2798 7.05287 11.2798 7.05287L11.451 7.22045C8.64882 7.88452 7.3783 9.12827 7.3783 9.12827C7.50822 9.10096 13.1663 5.85753 20.0223 9.21019C20.0223 9.21019 18.7493 8.04713 16.1196 7.30237L16.3519 7.07522C16.7155 7.07646 18.6394 7.14349 20.6982 8.63921C20.6982 8.63921 23.0019 12.5492 23.0019 17.3529C22.9257 17.261 21.5727 19.4209 18.0909 19.4953C18.0909 19.4953 17.5013 18.8325 17.0815 18.2541C19.1179 17.6731 19.8799 16.5113 19.8799 16.5113C15.9159 18.9914 12.4417 18.6041 8.28528 16.9284C8.24655 16.9284 8.22906 16.911 8.20907 16.8911V16.8837C8.18909 16.8651 8.1716 16.8465 8.13287 16.8465H8.05791C7.80306 16.6801 7.63315 16.5982 7.63315 16.5982C7.63315 16.5982 8.39397 17.76 10.3491 18.3409C9.83565 18.9231 9.32719 19.5847 9.32719 19.5847C5.84667 19.5028 4.57739 17.343 4.57739 17.343C4.57739 12.5318 6.86734 8.62928 6.86734 8.62928Z" fill="#5C6BC0"/>
<path d="M16.6259 15.854C17.5141 15.854 18.2375 15.1089 18.2375 14.1901C18.2375 13.2774 17.5179 12.5323 16.6259 12.5323V12.5361C15.7414 12.5361 15.0168 13.2786 15.0143 14.1975C15.0143 15.1089 15.7376 15.854 16.6259 15.854Z" fill="#5C6BC0"/>
<path d="M10.8559 15.854C11.7441 15.854 12.4674 15.1089 12.4674 14.1901C12.4674 13.2774 11.7491 12.5323 10.8608 12.5323L10.8559 12.5361C9.9676 12.5361 9.24426 13.2786 9.24426 14.1975C9.24426 15.1089 9.9676 15.854 10.8559 15.854Z" fill="#5C6BC0"/>
</svg>
