<svg width="236" height="249" viewBox="0 0 236 249" fill="none" xmlns="http://www.w3.org/2000/svg">
<path d="M5.39461 2.69732C5.39461 4.18448 4.18448 5.39459 2.69732 5.39459C1.21015 5.39459 0 4.18448 0 2.69732C0 1.21015 1.21015 0 2.69732 0C4.18448 0 5.39461 1.21015 5.39461 2.69732Z" fill="#10B981"/>
<path d="M21.1703 2.69732C21.1703 4.18448 19.9602 5.39459 18.473 5.39459C16.9858 5.39459 15.7757 4.18448 15.7757 2.69732C15.7757 1.21015 16.9858 0 18.473 0C19.9602 0 21.1703 1.21015 21.1703 2.69732Z" fill="#10B981"/>
<path d="M36.9603 2.69732C36.9603 4.18448 35.7502 5.39459 34.263 5.39459C32.7758 5.39459 31.5657 4.18448 31.5657 2.69732C31.5657 1.21015 32.7758 0 34.263 0C35.7502 0 36.9603 1.21015 36.9603 2.69732Z" fill="#10B981"/>
<path d="M52.736 2.69732C52.736 4.18448 51.5258 5.39459 50.0386 5.39459C48.5515 5.39459 47.3414 4.18448 47.3414 2.69732C47.3414 1.21015 48.5515 0 50.0386 0C51.5258 0 52.736 1.21015 52.736 2.69732Z" fill="#10B981"/>
<path d="M68.5117 2.69732C68.5117 4.18448 67.3015 5.39459 65.8144 5.39459C64.3272 5.39459 63.1171 4.18448 63.1171 2.69732C63.1171 1.21015 64.3272 0 65.8144 0C67.3015 0 68.5117 1.21015 68.5117 2.69732Z" fill="#10B981"/>
<path d="M84.2875 2.69732C84.2875 4.18448 83.0773 5.39459 81.5901 5.39459C80.103 5.39459 78.8928 4.18448 78.8928 2.69732C78.8928 1.21015 80.103 0 81.5901 0C83.0773 0 84.2875 1.21015 84.2875 2.69732Z" fill="#10B981"/>
<path d="M100.063 2.69732C100.063 4.18448 98.8526 5.39459 97.3655 5.39459C95.8783 5.39459 94.6682 4.18448 94.6682 2.69732C94.6682 1.21015 95.8783 0 97.3655 0C98.8526 0 100.063 1.21015 100.063 2.69732Z" fill="#10B981"/>
<path d="M115.853 2.69732C115.853 4.18448 114.643 5.39459 113.156 5.39459C111.669 5.39459 110.458 4.18448 110.458 2.69732C110.458 1.21015 111.669 0 113.156 0C114.643 0 115.853 1.21015 115.853 2.69732Z" fill="#10B981"/>
<path d="M5.39461 18.4728C5.39461 19.96 4.18448 21.1701 2.69732 21.1701C1.21015 21.1701 0 19.96 0 18.4728C0 16.9856 1.21015 15.7755 2.69732 15.7755C4.18448 15.7755 5.39461 16.9856 5.39461 18.4728Z" fill="#10B981"/>
<path d="M21.1703 18.4728C21.1703 19.96 19.9602 21.1701 18.473 21.1701C16.9858 21.1701 15.7757 19.96 15.7757 18.4728C15.7757 16.9856 16.9858 15.7755 18.473 15.7755C19.9602 15.7755 21.1703 16.9856 21.1703 18.4728Z" fill="#10B981"/>
<path d="M36.9603 18.4728C36.9603 19.96 35.7502 21.1701 34.263 21.1701C32.7758 21.1701 31.5657 19.96 31.5657 18.4728C31.5657 16.9856 32.7758 15.7755 34.263 15.7755C35.7502 15.7755 36.9603 16.9856 36.9603 18.4728Z" fill="#10B981"/>
<path d="M52.736 18.4728C52.736 19.96 51.5258 21.1701 50.0386 21.1701C48.5515 21.1701 47.3414 19.96 47.3414 18.4728C47.3414 16.9856 48.5515 15.7755 50.0386 15.7755C51.5258 15.7755 52.736 16.9856 52.736 18.4728Z" fill="#10B981"/>
<path d="M68.5117 18.4728C68.5117 19.96 67.3015 21.1701 65.8144 21.1701C64.3272 21.1701 63.1171 19.96 63.1171 18.4728C63.1171 16.9856 64.3272 15.7755 65.8144 15.7755C67.3015 15.7755 68.5117 16.9856 68.5117 18.4728Z" fill="#10B981"/>
<path d="M84.2875 18.4728C84.2875 19.96 83.0773 21.1701 81.5901 21.1701C80.103 21.1701 78.8928 19.96 78.8928 18.4728C78.8928 16.9856 80.103 15.7755 81.5901 15.7755C83.0773 15.7755 84.2875 16.9856 84.2875 18.4728Z" fill="#10B981"/>
<path d="M100.063 18.4728C100.063 19.96 98.8526 21.1701 97.3655 21.1701C95.8783 21.1701 94.6682 19.96 94.6682 18.4728C94.6682 16.9856 95.8783 15.7755 97.3655 15.7755C98.8526 15.7755 100.063 16.9856 100.063 18.4728Z" fill="#10B981"/>
<path d="M115.853 18.4728C115.853 19.96 114.643 21.1701 113.156 21.1701C111.669 21.1701 110.458 19.96 110.458 18.4728C110.458 16.9856 111.669 15.7755 113.156 15.7755C114.643 15.7755 115.853 16.9856 115.853 18.4728Z" fill="#10B981"/>
<path d="M5.39461 34.2631C5.39461 35.7503 4.18448 36.9604 2.69732 36.9604C1.21015 36.9604 0 35.7503 0 34.2631C0 32.7759 1.21015 31.5658 2.69732 31.5658C4.18448 31.5512 5.39461 32.7614 5.39461 34.2631Z" fill="#10B981"/>
<path d="M21.1703 34.2631C21.1703 35.7503 19.9602 36.9604 18.473 36.9604C16.9858 36.9604 15.7757 35.7503 15.7757 34.2631C15.7757 32.7759 16.9858 31.5658 18.473 31.5658C19.9602 31.5512 21.1703 32.7614 21.1703 34.2631Z" fill="#10B981"/>
<path d="M36.9603 34.2632C36.9603 35.7503 35.7502 36.9605 34.263 36.9605C32.7758 36.9605 31.5657 35.7503 31.5657 34.2632C31.5657 32.776 32.7758 31.5658 34.263 31.5658C35.7502 31.5658 36.9603 32.7614 36.9603 34.2632Z" fill="#10B981"/>
<path d="M52.736 34.2632C52.736 35.7503 51.5258 36.9605 50.0386 36.9605C48.5515 36.9605 47.3414 35.7503 47.3414 34.2632C47.3414 32.776 48.5515 31.5658 50.0386 31.5658C51.5258 31.5658 52.736 32.7614 52.736 34.2632Z" fill="#10B981"/>
<path d="M68.5117 34.2631C68.5117 35.7503 67.3015 36.9604 65.8144 36.9604C64.3272 36.9604 63.1171 35.7503 63.1171 34.2631C63.1171 32.7759 64.3272 31.5658 65.8144 31.5658C67.3015 31.5512 68.5117 32.7614 68.5117 34.2631Z" fill="#10B981"/>
<path d="M84.2875 34.2631C84.2875 35.7503 83.0773 36.9604 81.5901 36.9604C80.103 36.9604 78.8928 35.7503 78.8928 34.2631C78.8928 32.7759 80.103 31.5658 81.5901 31.5658C83.0773 31.5512 84.2875 32.7614 84.2875 34.2631Z" fill="#10B981"/>
<path d="M100.063 34.2631C100.063 35.7503 98.8526 36.9604 97.3655 36.9604C95.8783 36.9604 94.6682 35.7503 94.6682 34.2631C94.6682 32.7759 95.8783 31.5658 97.3655 31.5658C98.8526 31.5512 100.063 32.7614 100.063 34.2631Z" fill="#10B981"/>
<path d="M115.853 34.2631C115.853 35.7503 114.643 36.9604 113.156 36.9604C111.669 36.9604 110.458 35.7503 110.458 34.2631C110.458 32.7759 111.669 31.5658 113.156 31.5658C114.643 31.5512 115.853 32.7614 115.853 34.2631Z" fill="#10B981"/>
<path d="M5.39461 50.0386C5.39461 51.5258 4.18448 52.7359 2.69732 52.7359C1.21015 52.7359 0 51.5258 0 50.0386C0 48.5515 1.21015 47.3413 2.69732 47.3413C4.18448 47.3267 5.39461 48.5369 5.39461 50.0386Z" fill="#10B981"/>
<path d="M21.1703 50.0386C21.1703 51.5258 19.9602 52.7359 18.473 52.7359C16.9858 52.7359 15.7757 51.5258 15.7757 50.0386C15.7757 48.5515 16.9858 47.3413 18.473 47.3413C19.9602 47.3267 21.1703 48.5369 21.1703 50.0386Z" fill="#10B981"/>
<path d="M36.9603 50.0387C36.9603 51.5259 35.7502 52.736 34.263 52.736C32.7758 52.736 31.5657 51.5259 31.5657 50.0387C31.5657 48.5515 32.7758 47.3414 34.263 47.3414C35.7502 47.3414 36.9603 48.5369 36.9603 50.0387Z" fill="#10B981"/>
<path d="M52.736 50.0387C52.736 51.5259 51.5258 52.736 50.0386 52.736C48.5515 52.736 47.3414 51.5259 47.3414 50.0387C47.3414 48.5515 48.5515 47.3414 50.0386 47.3414C51.5258 47.3414 52.736 48.5369 52.736 50.0387Z" fill="#10B981"/>
<path d="M68.5117 50.0386C68.5117 51.5258 67.3015 52.7359 65.8144 52.7359C64.3272 52.7359 63.1171 51.5258 63.1171 50.0386C63.1171 48.5515 64.3272 47.3413 65.8144 47.3413C67.3015 47.3267 68.5117 48.5369 68.5117 50.0386Z" fill="#10B981"/>
<path d="M84.2875 50.0386C84.2875 51.5258 83.0773 52.7359 81.5901 52.7359C80.103 52.7359 78.8928 51.5258 78.8928 50.0386C78.8928 48.5515 80.103 47.3413 81.5901 47.3413C83.0773 47.3267 84.2875 48.5369 84.2875 50.0386Z" fill="#10B981"/>
<path d="M100.063 50.0386C100.063 51.5258 98.8526 52.7359 97.3655 52.7359C95.8783 52.7359 94.6682 51.5258 94.6682 50.0386C94.6682 48.5515 95.8783 47.3413 97.3655 47.3413C98.8526 47.3267 100.063 48.5369 100.063 50.0386Z" fill="#10B981"/>
<path d="M115.853 50.0386C115.853 51.5258 114.643 52.7359 113.156 52.7359C111.669 52.7359 110.458 51.5258 110.458 50.0386C110.458 48.5515 111.669 47.3413 113.156 47.3413C114.643 47.3267 115.853 48.5369 115.853 50.0386Z" fill="#10B981"/>
<path d="M5.39461 65.8144C5.39461 67.3015 4.18448 68.5117 2.69732 68.5117C1.21015 68.5117 0 67.3015 0 65.8144C0 64.3272 1.21015 63.1171 2.69732 63.1171C4.18448 63.1171 5.39461 64.3272 5.39461 65.8144Z" fill="#10B981"/>
<path d="M21.1703 65.8144C21.1703 67.3015 19.9602 68.5117 18.473 68.5117C16.9858 68.5117 15.7757 67.3015 15.7757 65.8144C15.7757 64.3272 16.9858 63.1171 18.473 63.1171C19.9602 63.1171 21.1703 64.3272 21.1703 65.8144Z" fill="#10B981"/>
<path d="M36.9603 65.8144C36.9603 67.3015 35.7502 68.5117 34.263 68.5117C32.7758 68.5117 31.5657 67.3015 31.5657 65.8144C31.5657 64.3272 32.7758 63.1171 34.263 63.1171C35.7502 63.1171 36.9603 64.3272 36.9603 65.8144Z" fill="#10B981"/>
<path d="M52.736 65.8144C52.736 67.3015 51.5258 68.5117 50.0386 68.5117C48.5515 68.5117 47.3414 67.3015 47.3414 65.8144C47.3414 64.3272 48.5515 63.1171 50.0386 63.1171C51.5258 63.1171 52.736 64.3272 52.736 65.8144Z" fill="#10B981"/>
<path d="M68.5117 65.8144C68.5117 67.3015 67.3015 68.5117 65.8144 68.5117C64.3272 68.5117 63.1171 67.3015 63.1171 65.8144C63.1171 64.3272 64.3272 63.1171 65.8144 63.1171C67.3015 63.1171 68.5117 64.3272 68.5117 65.8144Z" fill="#10B981"/>
<path d="M84.2875 65.8144C84.2875 67.3015 83.0773 68.5117 81.5901 68.5117C80.103 68.5117 78.8928 67.3015 78.8928 65.8144C78.8928 64.3272 80.103 63.1171 81.5901 63.1171C83.0773 63.1171 84.2875 64.3272 84.2875 65.8144Z" fill="#10B981"/>
<path d="M100.063 65.8144C100.063 67.3015 98.8526 68.5117 97.3655 68.5117C95.8783 68.5117 94.6682 67.3015 94.6682 65.8144C94.6682 64.3272 95.8783 63.1171 97.3655 63.1171C98.8526 63.1171 100.063 64.3272 100.063 65.8144Z" fill="#10B981"/>
<path d="M115.853 65.8144C115.853 67.3015 114.643 68.5117 113.156 68.5117C111.669 68.5117 110.458 67.3015 110.458 65.8144C110.458 64.3272 111.669 63.1171 113.156 63.1171C114.643 63.1171 115.853 64.3272 115.853 65.8144Z" fill="#10B981"/>
<path d="M225 184L234.958 193.958" stroke="#10B981" stroke-width="2" stroke-miterlimit="10" stroke-linecap="round" stroke-linejoin="round"/>
<path d="M225 193.958L234.958 184" stroke="#10B981" stroke-width="2" stroke-miterlimit="10" stroke-linecap="round" stroke-linejoin="round"/>
<path d="M165 240.5C165 244.651 161.637 248 157.5 248C153.363 248 150 244.637 150 240.5C150 236.349 153.363 233 157.5 233C161.637 233 165 236.363 165 240.5Z" stroke="#10B981" stroke-width="2" stroke-miterlimit="10" stroke-linecap="round" stroke-linejoin="round"/>
</svg>
