<svg width="225" height="162" viewBox="0 0 225 162" fill="none" xmlns="http://www.w3.org/2000/svg">
<path d="M54 161C58.4183 161 62 157.418 62 153C62 148.582 58.4183 145 54 145C49.5817 145 46 148.582 46 153C46 157.418 49.5817 161 54 161Z" stroke="#10B981" stroke-width="2" stroke-miterlimit="10" stroke-linecap="round" stroke-linejoin="round"/>
<path d="M213.819 1.70361L223.777 11.6618" stroke="#10B981" stroke-width="2" stroke-miterlimit="10" stroke-linecap="round" stroke-linejoin="round"/>
<path d="M213.819 11.6618L223.777 1.70361" stroke="#10B981" stroke-width="2" stroke-miterlimit="10" stroke-linecap="round" stroke-linejoin="round"/>
<path d="M174 92.3678L164.448 77L156 93L174 92.3678Z" stroke="#10B981" stroke-width="2" stroke-miterlimit="10" stroke-linecap="round" stroke-linejoin="round"/>
<path d="M1 33C6.2899 33 6.28993 41 11.5652 41C16.8551 41 16.8551 33 22.1303 33C27.4202 33 27.4202 41 32.6955 41C37.9854 41 37.9854 33 43.2753 33C48.5652 33 48.5651 41 53.8404 41C59.1303 41 59.1303 33 64.4202 33C69.7101 33 69.7101 41 75 41" stroke="#10B981" stroke-width="2" stroke-miterlimit="10" stroke-linecap="round" stroke-linejoin="round"/>
</svg>
