<svg width="20" height="15" viewBox="0 0 20 15" fill="none" xmlns="http://www.w3.org/2000/svg">
<path d="M19.967 1.77502C19.2245 2.07604 18.4333 2.27557 17.6084 2.37246C18.457 1.90419 19.1047 1.16835 19.4092 0.281419C18.618 0.717389 17.7445 1.02534 16.8135 1.19719C16.0622 0.457883 14.9915 0 13.8234 0C11.5572 0 9.73268 1.70005 9.73268 3.78417C9.73268 4.08404 9.76014 4.37238 9.82753 4.64688C6.4244 4.49348 3.41312 2.98604 1.39021 0.689708C1.03704 1.25601 0.82988 1.90419 0.82988 2.60198C0.82988 3.91219 1.55993 5.07362 2.64813 5.74603C1.99046 5.7345 1.34528 5.55803 0.798682 5.28007C0.798682 5.29161 0.798682 5.3066 0.798682 5.32159C0.798682 7.16005 2.21759 8.68709 4.07827 9.03887C3.74507 9.12306 3.38192 9.16343 3.00504 9.16343C2.74297 9.16343 2.47841 9.14959 2.23007 9.09884C2.76044 10.5971 4.26546 11.6985 6.05501 11.7343C4.6623 12.7411 2.89397 13.3478 0.979633 13.3478C0.643937 13.3478 0.321969 13.334 0 13.2959C1.81326 14.3766 3.96221 14.9937 6.27963 14.9937C13.8122 14.9937 17.9304 9.22686 17.9304 4.22821C17.9304 4.06097 17.9242 3.8995 17.9154 3.73919C18.7278 3.20634 19.4105 2.54085 19.967 1.77502Z" fill="#03A9F4"/>
</svg>
