<svg width="18" height="6" viewBox="0 0 18 6" fill="none" xmlns="http://www.w3.org/2000/svg">
<path d="M2 2.65234H2.01M9 2.65234H9.01M16 2.65234H16.01M3 2.65234C3 3.09057 2.89464 3.51084 2.70711 3.82072C2.51957 4.13059 2.26522 4.30468 2 4.30468C1.73478 4.30468 1.48043 4.13059 1.29289 3.82072C1.10536 3.51084 1 3.09057 1 2.65234C1 2.21411 1.10536 1.79383 1.29289 1.48396C1.48043 1.17409 1.73478 1 2 1C2.26522 1 2.51957 1.17409 2.70711 1.48396C2.89464 1.79383 3 2.21411 3 2.65234ZM10 2.65234C10 3.09057 9.89464 3.51084 9.70711 3.82072C9.51957 4.13059 9.26522 4.30468 9 4.30468C8.73478 4.30468 8.48043 4.13059 8.29289 3.82072C8.10536 3.51084 8 3.09057 8 2.65234C8 2.21411 8.10536 1.79383 8.29289 1.48396C8.48043 1.17409 8.73478 1 9 1C9.26522 1 9.51957 1.17409 9.70711 1.48396C9.89464 1.79383 10 2.21411 10 2.65234ZM17 2.65234C17 3.09057 16.8946 3.51084 16.7071 3.82072C16.5196 4.13059 16.2652 4.30468 16 4.30468C15.7348 4.30468 15.4804 4.13059 15.2929 3.82072C15.1054 3.51084 15 3.09057 15 2.65234C15 2.21411 15.1054 1.79383 15.2929 1.48396C15.4804 1.17409 15.7348 1 16 1C16.2652 1 16.5196 1.17409 16.7071 1.48396C16.8946 1.79383 17 2.21411 17 2.65234Z" stroke="white" stroke-width="2" stroke-linecap="round" stroke-linejoin="round"/>
</svg>
